<mxfile host="app.diagrams.net" modified="2021-06-11T16:55:08.147Z" agent="5.0 (Windows)" etag="UdFpi1lBDDgCRB2GJ5HB" version="14.7.7" type="github">
  <diagram id="g93g-kIrpq6ozMJvN1yE" name="Page-1">
    <mxGraphModel dx="1421" dy="820" grid="1" gridSize="10" guides="1" tooltips="1" connect="1" arrows="1" fold="1" page="1" pageScale="1" pageWidth="1654" pageHeight="1169" math="0" shadow="0">
      <root>
        <mxCell id="0" />
        <mxCell id="1" parent="0" />
        <mxCell id="odgK7hiK9a5wzH4GmCm1-3" value="&lt;div&gt;Fornitore imballi&lt;/div&gt;" style="strokeWidth=2;html=1;shape=mxgraph.lean_mapping.outside_sources;whiteSpace=wrap;align=center;" vertex="1" parent="1">
          <mxGeometry x="160" y="120" width="120" height="80" as="geometry" />
        </mxCell>
        <mxCell id="odgK7hiK9a5wzH4GmCm1-4" value="Cliente" style="strokeWidth=2;html=1;shape=mxgraph.lean_mapping.outside_sources;whiteSpace=wrap;align=center;" vertex="1" parent="1">
          <mxGeometry x="1240" y="120" width="120" height="80" as="geometry" />
        </mxCell>
        <mxCell id="odgK7hiK9a5wzH4GmCm1-5" value="Informazioni" style="shape=mxgraph.lean_mapping.electronic_info_flow_edge;html=1;" edge="1" parent="1" source="odgK7hiK9a5wzH4GmCm1-7" target="odgK7hiK9a5wzH4GmCm1-3">
          <mxGeometry width="100" height="100" relative="1" as="geometry">
            <mxPoint x="640" y="165" as="sourcePoint" />
            <mxPoint x="790" y="70" as="targetPoint" />
          </mxGeometry>
        </mxCell>
        <mxCell id="odgK7hiK9a5wzH4GmCm1-6" value="Informazioni" style="shape=mxgraph.lean_mapping.electronic_info_flow_edge;html=1;" edge="1" parent="1" source="odgK7hiK9a5wzH4GmCm1-4" target="odgK7hiK9a5wzH4GmCm1-7">
          <mxGeometry width="100" height="100" relative="1" as="geometry">
            <mxPoint x="650" y="175" as="sourcePoint" />
            <mxPoint x="840" y="165" as="targetPoint" />
          </mxGeometry>
        </mxCell>
        <mxCell id="odgK7hiK9a5wzH4GmCm1-7" value="MRP" style="strokeWidth=2;html=1;shape=mxgraph.lean_mapping.schedule;whiteSpace=wrap;align=center;" vertex="1" parent="1">
          <mxGeometry x="640" y="120" width="200" height="80" as="geometry" />
        </mxCell>
        <mxCell id="odgK7hiK9a5wzH4GmCm1-8" value="Lotti minimi di consegna" style="strokeWidth=2;html=1;shape=mxgraph.lean_mapping.schedule;whiteSpace=wrap;align=center;" vertex="1" parent="1">
          <mxGeometry x="240" y="280" width="120" height="80" as="geometry" />
        </mxCell>
        <mxCell id="odgK7hiK9a5wzH4GmCm1-9" value="" style="shape=flexArrow;html=1;" edge="1" parent="1" source="odgK7hiK9a5wzH4GmCm1-3" target="odgK7hiK9a5wzH4GmCm1-10">
          <mxGeometry width="100" height="100" relative="1" as="geometry">
            <mxPoint x="800" y="270" as="sourcePoint" />
            <mxPoint x="190" y="440" as="targetPoint" />
          </mxGeometry>
        </mxCell>
        <mxCell id="odgK7hiK9a5wzH4GmCm1-10" value="" style="strokeWidth=2;html=1;shape=mxgraph.lean_mapping.manufacturing_process;fontSize=12;verticalAlign=middle;html=1;align=center;whiteSpace=wrap;" vertex="1" parent="1">
          <mxGeometry x="160" y="440" width="120" height="80" as="geometry" />
        </mxCell>
        <mxCell id="odgK7hiK9a5wzH4GmCm1-11" value="Magazzino" style="text;fontSize=12;spacingLeft=2;verticalAlign=top;html=1;align=center;spacingTop=-5;resizeWidth=1;" vertex="1" parent="odgK7hiK9a5wzH4GmCm1-10">
          <mxGeometry width="120" height="14.857142857142856" as="geometry" />
        </mxCell>
        <mxCell id="odgK7hiK9a5wzH4GmCm1-13" value="&lt;div&gt;C/T = 3.28 min&lt;/div&gt;&lt;div&gt;2 op&lt;br&gt;&lt;/div&gt;" style="strokeWidth=2;html=1;shape=mxgraph.lean_mapping.manufacturing_process;fontSize=12;verticalAlign=middle;html=1;align=center;whiteSpace=wrap;" vertex="1" parent="1">
          <mxGeometry x="680" y="440" width="120" height="80" as="geometry" />
        </mxCell>
        <mxCell id="odgK7hiK9a5wzH4GmCm1-14" value="Imballo Linkar" style="text;fontSize=12;spacingLeft=2;verticalAlign=top;html=1;align=center;spacingTop=-5;resizeWidth=1;" vertex="1" parent="odgK7hiK9a5wzH4GmCm1-13">
          <mxGeometry width="120" height="14.857142857142856" as="geometry" />
        </mxCell>
        <mxCell id="odgK7hiK9a5wzH4GmCm1-15" value="" style="shape=flexArrow;html=1;" edge="1" parent="1" source="odgK7hiK9a5wzH4GmCm1-13" target="odgK7hiK9a5wzH4GmCm1-16">
          <mxGeometry width="100" height="100" relative="1" as="geometry">
            <mxPoint x="1060" y="540" as="sourcePoint" />
            <mxPoint x="1010" y="640" as="targetPoint" />
          </mxGeometry>
        </mxCell>
        <mxCell id="odgK7hiK9a5wzH4GmCm1-16" value="" style="strokeWidth=2;html=1;shape=mxgraph.lean_mapping.manufacturing_process;fontSize=12;verticalAlign=middle;html=1;align=center;whiteSpace=wrap;" vertex="1" parent="1">
          <mxGeometry x="1240" y="440" width="120" height="80" as="geometry" />
        </mxCell>
        <mxCell id="odgK7hiK9a5wzH4GmCm1-17" value="Spedizioni" style="text;fontSize=12;spacingLeft=2;verticalAlign=top;html=1;align=center;spacingTop=-5;resizeWidth=1;" vertex="1" parent="odgK7hiK9a5wzH4GmCm1-16">
          <mxGeometry width="120" height="14.857142857142856" as="geometry" />
        </mxCell>
        <mxCell id="odgK7hiK9a5wzH4GmCm1-18" value="" style="shape=flexArrow;html=1;" edge="1" parent="1" source="odgK7hiK9a5wzH4GmCm1-16" target="odgK7hiK9a5wzH4GmCm1-4">
          <mxGeometry width="100" height="100" relative="1" as="geometry">
            <mxPoint x="810" y="490" as="sourcePoint" />
            <mxPoint x="1250" y="490" as="targetPoint" />
          </mxGeometry>
        </mxCell>
        <mxCell id="odgK7hiK9a5wzH4GmCm1-19" value="" style="verticalLabelPosition=bottom;html=1;verticalAlign=top;strokeWidth=2;shape=mxgraph.lean_mapping.timeline2;dx1=0;dy1=0.875;dx2=120;dy2=0.05;dx3=520;dy3=1;dx4=640;dy4=0;dx5=1081;dy5=1;dy6=0;" vertex="1" parent="1">
          <mxGeometry x="160" y="600" width="1200" height="40" as="geometry" />
        </mxCell>
        <mxCell id="odgK7hiK9a5wzH4GmCm1-21" value="" style="shape=flexArrow;html=1;" edge="1" parent="1" source="odgK7hiK9a5wzH4GmCm1-10" target="odgK7hiK9a5wzH4GmCm1-13">
          <mxGeometry width="100" height="100" relative="1" as="geometry">
            <mxPoint x="280" y="479.5" as="sourcePoint" />
            <mxPoint x="680" y="479.5" as="targetPoint" />
            <Array as="points">
              <mxPoint x="460" y="479.5" />
              <mxPoint x="550" y="479.5" />
            </Array>
          </mxGeometry>
        </mxCell>
        <mxCell id="odgK7hiK9a5wzH4GmCm1-23" value="" style="verticalLabelPosition=bottom;html=1;verticalAlign=top;strokeWidth=2;shape=mxgraph.lean_mapping.inventory_box;" vertex="1" parent="1">
          <mxGeometry x="440" y="440" width="80" height="80" as="geometry" />
        </mxCell>
      </root>
    </mxGraphModel>
  </diagram>
</mxfile>
